<svg width="207" height="46" viewBox="0 0 207 46" fill="none" xmlns="http://www.w3.org/2000/svg">
<path d="M36.891 6.005H6.59603L8.78203 0H39.076L36.891 6.005ZM35.797 9.008H5.50303L3.31703 15.013H33.612L35.797 9.008ZM32.523 18.016H2.22903L0.0430298 24.021H30.337L32.523 18.016Z" fill="#00AAFF"/>
<path d="M136.893 20.882L136.979 18.922C137.254 19.043 137.65 19.094 137.959 19.094C139.66 19.094 139.832 16.482 139.884 9.02103H148.117V21.019H145.676V11.032H142.187C142.152 17.529 141.895 21.139 138.68 21.139C137.976 21.14 137.34 21.054 136.893 20.882ZM151.011 9.02103H153.383V13.421C153.383 14.676 153.314 16.876 153.246 18.062H153.28L158.351 9.02103H161.015V21.019H158.643V16.619C158.643 15.364 158.712 13.164 158.78 11.978H158.746L153.624 21.019H151.011V9.02103ZM162.98 20.71L163.186 18.596C164.063 19.06 165.163 19.267 166.194 19.267C167.346 19.267 168.738 18.975 168.738 17.496C168.738 15.829 167.002 15.726 165.919 15.726C165.73 15.726 165.404 15.726 165.025 15.777V13.955C165.249 13.972 165.506 13.972 165.644 13.972C166.813 13.972 168.618 13.732 168.618 12.219C168.618 10.998 167.397 10.706 166.315 10.706C165.404 10.706 164.149 10.93 163.479 11.256L163.29 9.36503C164.322 9.05503 165.679 8.83203 166.727 8.83203C169.134 8.83203 171.025 9.70803 171.025 12.012C171.025 13.301 170.165 14.247 168.722 14.642V14.676C170.269 14.882 171.249 16.154 171.249 17.547C171.249 20.159 169.221 21.225 166.488 21.225C165.163 21.226 163.908 21.037 162.98 20.71ZM173.572 9.02103H175.944V13.421C175.944 14.676 175.875 16.876 175.807 18.062H175.842L180.912 9.02103H183.576V21.019H181.204V16.619C181.204 15.364 181.273 13.164 181.342 11.978H181.307L176.185 21.019H173.572V9.02103ZM186.47 9.02103H188.911V13.8H193.706V9.02103H196.147V21.019H193.706V15.828H188.911V21.019H186.47V9.02103ZM199.041 9.02103H206.088V11.032H201.482V21.019H199.041V9.02103ZM109.069 38.992H114.492C116.549 38.992 117.796 38.493 118.669 37.371C119.105 36.81 119.729 35.813 119.729 33.942C119.729 32.072 119.106 30.763 117.859 29.828C117.111 29.267 116.114 28.955 114.43 28.955H109.069V38.992ZM101.9 45.039V9.00803H125.339L123.282 15.055H109.069V23.034H114.867C119.542 23.034 121.973 24.156 123.656 25.59C124.965 26.712 127.209 29.205 127.209 34.13C127.209 38.992 124.902 41.673 122.97 43.044C120.726 44.603 118.357 45.039 113.557 45.039H101.9ZM81.142 45.039V15.055H70.732V9.00803H99.657L97.6 15.055H88.374V45.039H81.142ZM52.279 23.408H56.331C57.578 23.408 58.201 23.408 58.824 23.221C60.507 22.722 61.567 21.226 61.567 19.169C61.567 16.738 60.445 15.678 58.824 15.179C58.138 14.992 57.453 14.93 56.081 14.93H52.279V23.408ZM52.342 29.642V39.117H57.329C58.825 39.117 60.196 38.992 61.194 38.057C62.191 37.122 62.628 35.937 62.628 34.379C62.628 33.195 62.316 32.073 61.693 31.262C60.633 29.953 59.324 29.641 57.08 29.641L52.342 29.642ZM63.874 25.839V25.964C65.246 26.463 66.555 27.335 67.24 27.896C69.36 29.642 70.295 31.948 70.295 34.94C70.295 39.865 67.677 43.418 63.376 44.54C62.067 44.914 60.695 45.039 58.14 45.039H45.11V9.00803H56.643C59.012 9.00803 60.633 9.13303 62.066 9.50703C66.243 10.629 68.985 13.497 68.985 18.047C68.985 20.478 68.112 22.535 66.679 23.907C66.056 24.53 65.183 25.278 63.874 25.839Z" fill="#002882"/>
</svg>
